<?xml version="1.0" encoding="utf-8"?>
<!-- Generator: Adobe Illustrator 19.2.1, SVG Export Plug-In . SVG Version: 6.00 Build 0)  -->
<svg version="1.1" id="layer" xmlns="http://www.w3.org/2000/svg" xmlns:xlink="http://www.w3.org/1999/xlink" x="0px" y="0px"
	 viewBox="0 0 652 652" style="enable-background:new 0 0 652 652;" xml:space="preserve">
<style type="text/css">
	.st0{fill:#001F5B;}
</style>
<g>
	<path class="st0" d="M221.5,403c1.4,1.3,2.1,2.9,2.1,4.7c0,1.7-0.6,3.2-1.8,4.5c-1.3,1.4-2.9,2-4.8,2c-1.8,0-3.3-0.6-4.6-1.8
		c-1.4-1.3-2.1-2.9-2.1-4.7c0-1.7,0.6-3.2,1.8-4.5c1.3-1.4,2.9-2,4.8-2C218.6,401.2,220.2,401.8,221.5,403 M213,400.9
		c-1.2,0.6-2.2,1.6-3,2.8c-0.8,1.2-1.1,2.6-1.1,4c0,2.1,0.8,3.9,2.3,5.5c1.5,1.5,3.4,2.3,5.7,2.3c1.4,0,2.7-0.3,3.9-1
		c1.2-0.7,2.2-1.6,3-2.8c0.8-1.2,1.1-2.6,1.1-4c0-2.1-0.8-3.9-2.3-5.5c-1.5-1.6-3.4-2.3-5.7-2.3C215.5,399.9,214.2,400.2,213,400.9
		 M214.8,412.1v-3.6h0.8c0.5,0,0.9,0.1,1.1,0.3c0.4,0.3,0.8,0.9,1.4,1.9l0.8,1.3h1.7l-1-1.6c-0.5-0.7-0.9-1.3-1.2-1.6
		c-0.2-0.2-0.4-0.3-0.8-0.5c0.7-0.1,1.3-0.3,1.8-0.7c0.5-0.4,0.7-1,0.7-1.6c0-0.5-0.1-0.9-0.4-1.3c-0.3-0.4-0.6-0.6-1.1-0.8
		c-0.4-0.2-1.2-0.2-2.2-0.2h-3v8.4H214.8z M214.8,404.8h1.6c0.7,0,1.1,0,1.4,0.1c0.2,0.1,0.5,0.2,0.6,0.4c0.2,0.2,0.2,0.4,0.2,0.7
		c0,0.4-0.2,0.7-0.5,1s-0.9,0.3-1.6,0.3h-1.7V404.8z"/>
	<path class="st0" d="M127.3,214.5c-58.7,0-106.7,47.9-106.7,106.7c0,58.7,47.9,106.6,106.7,106.6c58.7,0,106.6-47.8,106.6-106.6
		C233.8,262.4,186,214.5,127.3,214.5 M228.9,318.9c-50.4-7.4-92.6-49.5-99.5-99.5c27.1,0.6,51.7,11.9,69.6,29.8
		C217.1,267.2,228.3,291.8,228.9,318.9 M127.2,412.7c-10.1-44.3-47-81.1-91.7-91.6c44.7-10.5,81.6-47.3,91.7-91.6
		c10.1,44.3,47,81.1,91.7,91.6C174.2,331.6,137.3,368.3,127.2,412.7 M55.4,249.2c17.9-17.9,42.5-29.2,69.6-29.8
		c-6.8,50-49.1,92.1-99.4,99.5C26.1,291.8,37.4,267.2,55.4,249.2 M25.5,323.3c50.4,7.4,92.6,49.5,99.4,99.5
		c-27.1-0.6-51.7-11.9-69.6-29.8C37.4,375,26.1,350.4,25.5,323.3 M199.1,393c-17.9,17.9-42.5,29.2-69.6,29.8
		c6.8-50,49.1-92.1,99.5-99.5C228.4,350.4,217.1,375,199.1,393"/>
	<path class="st0" d="M58.5,323.1c29.6,12.8,53.9,37.1,66.6,66.4v-66.4H58.5z"/>
	<path class="st0" d="M125.2,252.6C112.5,282,88.1,306.2,58.5,319h66.6V252.6z"/>
	<path class="st0" d="M195.9,319c-29.6-12.8-53.9-37.1-66.6-66.4V319H195.9z"/>
	<path class="st0" d="M129.3,389.5c12.7-29.3,37.1-53.6,66.6-66.4h-66.6V389.5z"/>
	<path class="st0" d="M349.2,246.5c-9.9-7.3-22.8-11.3-36.3-11.3c-31.4,0-54.2,20.6-54.2,49.1l-0.2,117.9h34.3l0.1-57.3h40.9
		l-0.1,57.3h34.3l0.2-0.2V283.8C368,268.8,361.3,255.5,349.2,246.5 M333.7,316.8h-40.9l0-32.5c0-14.1,16.6-14.8,19.9-14.8
		c7.2,0,20.9,3,20.9,14.4L333.7,316.8z"/>
	<path class="st0" d="M601.7,246.5c-9.9-7.3-22.8-11.3-36.3-11.3c-31.4,0-54.2,20.6-54.2,49.1L511,402.2h34.3l0.1-57.3h40.9
		l-0.1,57.3h34.3l0.2-0.2V283.8C620.6,268.8,613.9,255.5,601.7,246.5 M586.3,316.8h-40.9l0-32.5c0-14.1,16.6-14.8,19.9-14.8
		c7.2,0,20.9,3,20.9,14.4L586.3,316.8z"/>
	<path class="st0" d="M503.2,297.4c0-34.3-27.9-62.3-62.3-62.3c-34.3,0-62.2,27.9-62.2,62.1h0v104.9h34.2v-56.9L480,407l22.9-24.8
		l-32.5-29.9C489.9,341.7,503.2,321.1,503.2,297.4 M440.9,269.5c15.4,0,28,12.5,28,28s-12.5,28-28,28c-15.4,0-28-12.5-28-28
		S425.5,269.5,440.9,269.5"/>
</g>
</svg>
